{"title":"Braveheart (1995) 1080p.DTS.x264 [ENG/POL]","uid":10078123,"size":23660573574,"categoryP":"video","categoryS":"hd___movies","magnet":"?xt=urn:btih:ee0f70c69abdbf2a24aee3c706b651f9782bcac9&amp;dn=Braveheart+%281995%29+1080p.DTS.x264+%5BENG%2FPOL%5D&amp;tr=udp%3A%2F%2Ftracker.openbittorrent.com%3A80&amp;tr=udp%3A%2F%2Fopen.demonii.com%3A1337&amp;tr=udp%3A%2F%2Ftracker.coppersurfer.tk%3A6969&amp;tr=udp%3A%2F%2Fexodus.desync.com%3A6969","seeders":1,"leechers":2,"uploader":"gixer1000k9","files":-1,"time":1398904659,"description":"William Wallace is a Scottish rebel who leads an uprising against the cruel English ruler Edward the Longshanks, who wishes to inherit the crown of Scotland for himself. When he was a young boy, William Wallace's father and brother, along with many others, lost their lives trying to free Scotland. Once he loses another of his loved ones, William Wallace begins his long quest to make Scotland free once and for all, along with the assistance of Robert the Bruce.\n\n &lt;a href=&quot;\nhttp://i.imgur.com/lJ0fFi2.jpg&quot; rel=&quot;nofollow&quot; target=&quot;_NEW&quot;&gt;\nhttp://i.imgur.com/lJ0fFi2.jpg&lt;/a&gt;\n &lt;a href=&quot;\nhttp://i.imgur.com/72FTYNL.jpg&quot; rel=&quot;nofollow&quot; target=&quot;_NEW&quot;&gt;\nhttp://i.imgur.com/72FTYNL.jpg&lt;/a&gt;\n &lt;a href=&quot;\nhttp://i.imgur.com/KoGj34L.jpg&quot; rel=&quot;nofollow&quot; target=&quot;_NEW&quot;&gt;\nhttp://i.imgur.com/KoGj34L.jpg&lt;/a&gt;\n &lt;a href=&quot;\nhttp://i.imgur.com/vHUvkX8.jpg&quot; rel=&quot;nofollow&quot; target=&quot;_NEW&quot;&gt;\nhttp://i.imgur.com/vHUvkX8.jpg&lt;/a&gt;\n &lt;a href=&quot;\nhttp://i.imgur.com/s9vPLzO.jpg&quot; rel=&quot;nofollow&quot; target=&quot;_NEW&quot;&gt;\nhttp://i.imgur.com/s9vPLzO.jpg&lt;/a&gt;\n\n\nTechnical Data:\n\nFormat                                   : Matroska\nFormat version                           : Version 2\nFile size                                : 22.0 GiB\nDuration                                 : 2h 57mn\nOverall bit rate                         : 17.7 Mbps\nMovie name                               : Braveheart (1985) (gixerk9)\nEncoded date                             : UTC 2014-05-01 09:12:17\nWriting application                      : mkvmerge v5.7.0 ('The Whirlwind') built on Jul  8 2012 20:08:51\nWriting library                          : libebml v1.2.3 + libmatroska v1.3.0\n\nVideo\nID                                       : 1\nFormat                                   : AVC\nFormat/Info                              : Advanced Video Codec\nFormat profile                           : &lt;a class=&quot;__cf_email__&quot; href=&quot;/cdn-cgi/l/email-protection&quot; data-cfemail=&quot;9cd4f5fbf4dcd0a8b2ad&quot;&gt;[email&amp;#160;protected]&lt;/a&gt;&lt;script cf-hash='f9e31' type=&quot;text/javascript&quot;&gt;\n/* &lt;![CDATA[ */!function(){try{var t=&quot;currentScript&quot;in document?document.currentScript:function(){for(var t=document.getElementsByTagName(&quot;script&quot;),e=t.length;e--;)if(t[e].getAttribute(&quot;cf-hash&quot;))return t[e]}();if(t&amp;&amp;t.previousSibling){var e,r,n,i,c=t.previousSibling,a=c.getAttribute(&quot;data-cfemail&quot;);if(a){for(e=&quot;&quot;,r=parseInt(a.substr(0,2),16),n=2;a.length-n;n+=2)i=parseInt(a.substr(n,2),16)^r,e+=String.fromCharCode(i);e=document.createTextNode(e),c.parentNode.replaceChild(e,c)}}}catch(u){}}();/* ]]&gt; */&lt;/script&gt;\nFormat settings, CABAC                   : Yes\nFormat settings, ReFrames                : 4 frames\nCodec ID                                 : V_MPEG4/ISO/AVC\nDuration                                 : 2h 57mn\nBit rate                                 : 14.3 Mbps\nWidth                                    : 1 920 pixels\nHeight                                   : 816 pixels\nDisplay aspect ratio                     : 2.35:1\nFrame rate mode                          : Constant\nFrame rate                               : 23.976 fps\nColor space                              : YUV\nChroma subsampling                       : 4:2:0\nBit depth                                : 8 bits\nScan type                                : Progressive\nBits/(Pixel*Frame)                       : 0.380\nStream size                              : 17.3 GiB (78%)\nWriting library                          : x264 core 142 r2409\nDefault                                  : Yes\nForced                                   : No\nColor primaries                          : BT.709\nTransfer characteristics                 : BT.709\nMatrix coefficients                      : BT.709\n\nAudio #1\nID                                       : 2\nFormat                                   : AC-3\nFormat/Info                              : Audio Coding 3\nMode extension                           : CM (complete main)\nFormat settings, Endianness              : Big\nCodec ID                                 : A_AC3\nDuration                                 : 2h 57mn\nBit rate mode                            : Constant\nBit rate                                 : 448 Kbps\nChannel(s)                               : 6 channels\nChannel positions                        : Front: L C R, Side: L R, LFE\nSampling rate                            : 48.0 KHz\nBit depth                                : 16 bits\nCompression mode                         : Lossy\nStream size                              : 570 MiB (3%)\nTitle                                    : Lektor PL\nLanguage                                 : Polish\nDefault                                  : Yes\nForced                                   : No\n\nAudio #2\nID                                       : 3\nFormat                                   : DTS\nFormat/Info                              : Digital Theater Systems\nFormat profile                           : HRA / Core\nMode                                     : 16\nFormat settings, Endianness              : Big\nCodec ID                                 : A_DTS\nDuration                                 : 2h 57mn\nBit rate mode                            : Constant\nBit rate                                 : 3 018 Kbps / 1 509 Kbps\nChannel(s)                               : 6 channels\nChannel positions                        : Front: L C R, Side: L R, LFE\nSampling rate                            : 48.0 KHz\nBit depth                                : 24 bits\nCompression mode                         : Lossy\nStream size                              : 3.75 GiB (17%)\nTitle                                    : DTS-HD HR\nLanguage                                 : English\nDefault                                  : No\nForced                                   : No\n\nText\nID                                       : 4\nFormat                                   : UTF-8\nCodec ID                                 : S_TEXT/UTF8\nCodec ID/Info                            : UTF-8 Plain Text\nTitle                                    : Napisy PL\nLanguage                                 : Polish\nDefault                                  : No\nForced                                   : No\n\nSource:\n\nA/V: Braveheart (1995) Blu-ray","torrent":{"xt":"urn:btih:ee0f70c69abdbf2a24aee3c706b651f9782bcac9","amp;dn":"Braveheart+%281995%29+1080p.DTS.x264+%5BENG%2FPOL%5D","amp;tr":["udp%3A%2F%2Ftracker.openbittorrent.com%3A80","udp%3A%2F%2Fopen.demonii.com%3A1337","udp%3A%2F%2Ftracker.coppersurfer.tk%3A6969","udp%3A%2F%2Fexodus.desync.com%3A6969"],"infoHash":"ee0f70c69abdbf2a24aee3c706b651f9782bcac9","infoHashBuffer":{"type":"Buffer","data":[238,15,112,198,154,189,191,42,36,174,227,199,6,182,81,249,120,43,202,201]},"announce":[],"urlList":[]}}